<svg fill="none" viewBox="0 0 17 15" xmlns="http://www.w3.org/2000/svg"><path d="M15.145 4.324v.438a10.99 10.99 0 0 1-1.047 4.678c-.698 1.503-1.776 2.776-3.234 3.819-1.459 1.044-3.146 1.565-5.064 1.565-1.854 0-3.53-.527-5.03-1.582.166.023.426.034.78.034 1.563 0 2.927-.505 4.094-1.514a2.93 2.93 0 0 1-1.906-.69A3.671 3.671 0 0 1 2.55 9.304c.146.045.355.067.625.067.313 0 .604-.034.875-.1-.75-.18-1.375-.595-1.875-1.246-.5-.65-.75-1.391-.75-2.221v-.067c.48.29.97.437 1.47.437-.98-.673-1.47-1.65-1.47-2.928 0-.583.157-1.178.47-1.784 1.728 2.334 3.978 3.568 6.75 3.702a3.562 3.562 0 0 1-.095-.807c0-.965.318-1.795.953-2.49.637-.696 1.413-1.043 2.33-1.043.958 0 1.76.37 2.406 1.11.812-.18 1.51-.46 2.093-.84-.25.83-.729 1.48-1.437 1.95.73-.111 1.354-.302 1.875-.571a7.036 7.036 0 0 1-1.625 1.85Z" fill="#ffffff" class="fill-000000"></path></svg>