<!DOCTYPE svg PUBLIC "-//W3C//DTD SVG 1.1//EN" "http://www.w3.org/Graphics/SVG/1.1/DTD/svg11.dtd">
<!-- Uploaded to: SVG Repo, www.svgrepo.com, Transformed by: SVG Repo Mixer Tools -->
<svg fill="white" height="800px" width="800px" version="1.1" id="Capa_1" xmlns="http://www.w3.org/2000/svg" xmlns:xlink="http://www.w3.org/1999/xlink" viewBox="-49 -49 588.00 588.00" xml:space="preserve" stroke="white">
<g id="SVGRepo_bgCarrier" stroke-width="0">
<rect x="-49" y="-49" width="588.00" height="588.00" rx="294" fill="#e4032f" strokewidth="0"/>
</g>
<g id="SVGRepo_tracerCarrier" stroke-linecap="round" stroke-linejoin="round"/>
<g id="SVGRepo_iconCarrier"> <g> <g> <g> <path d="M480.25,472.9V136.8c0-0.5,0-1.1-0.1-1.6c0-0.2,0-0.4-0.1-0.6c0-0.3-0.1-0.6-0.1-1c0-0.2-0.1-0.5-0.2-0.7 c-0.1-0.3-0.1-0.5-0.2-0.8c-0.1-0.2-0.1-0.5-0.2-0.7s-0.2-0.5-0.3-0.7c-0.1-0.2-0.2-0.5-0.3-0.7c-0.1-0.3-0.2-0.5-0.4-0.8 c-0.1-0.3-0.3-0.5-0.4-0.8c-0.2-0.4-0.4-0.7-0.7-1.1c-0.1-0.2-0.2-0.3-0.4-0.5c-0.1-0.2-0.3-0.4-0.4-0.6L382.35,6.5 c-3.3-4.1-8.2-6.5-13.5-6.5h-247.6c-5.3,0-10.2,2.4-13.5,6.5l-94.2,119.6c-0.2,0.2-0.3,0.4-0.4,0.6c-0.1,0.2-0.2,0.3-0.4,0.5 c-0.2,0.4-0.5,0.7-0.7,1.1c-0.1,0.3-0.3,0.5-0.4,0.8s-0.3,0.5-0.4,0.8c-0.1,0.2-0.2,0.5-0.3,0.7s-0.2,0.5-0.3,0.7 s-0.2,0.5-0.2,0.7c-0.1,0.3-0.1,0.5-0.2,0.8c-0.1,0.2-0.1,0.5-0.2,0.7c-0.1,0.3-0.1,0.6-0.1,1c0,0.2-0.1,0.4-0.1,0.6 c0,0.5-0.1,1.1-0.1,1.6v336.1c0,9.5,7.7,17.2,17.1,17.2h436.1C472.55,490,480.25,482.3,480.25,472.9z M427.75,119.6h-165.6V34.3 h98.3L427.75,119.6z M129.55,34.3h98.3v85.3H62.35L129.55,34.3z M44.15,455.7V153.9h401.8v301.8L44.15,455.7L44.15,455.7z"/> </g> </g> <g> </g> <g> </g> <g> </g> <g> </g> <g> </g> <g> </g> <g> </g> <g> </g> <g> </g> <g> </g> <g> </g> <g> </g> <g> </g> <g> </g> <g> </g> </g> </g>
</svg>